# xmcd
#
# Track frame offsets:
#	150
#	14716
#	29724
#	54749
#
# Disc length: 927 seconds
#
# Revision: 2
# Processed by: cddbd v1.5.2PL0 Copyright (c) Steve Scherf et al.
# Submitted via: audiograbber 1.83.01
#
DISCID=36039d04
DTITLE=Manfred Peter - Maxi CD - Mädchen sind Engel (LC 00805)
DYEAR=1900
DGENRE=Deutsch
TTITLE0=Mädchen sind Engel (Radio Mix Version)
TTITLE1=Mädchen sind Engel (Party Mix Version)
TTITLE2=Mädchen sind Engel (Extended DJ Party Mix Version)
TTITLE3=Mädchen sind Engel (Karaoke Mix Version)
EXTD=
EXTT0=
EXTT1=
EXTT2=
EXTT3=
PLAYORDER=
